<mxfile host="app.diagrams.net" modified="2024-04-28T13:48:45.925Z" agent="Mozilla/5.0 (X11; Linux x86_64; rv:109.0) Gecko/20100101 Firefox/117.0" etag="taKrbemXWdmX4ZxMB9LI" version="24.0.6" type="device">
  <diagram name="Page-1" id="vIDJW2gIFjwuQT96vA9Q">
    <mxGraphModel dx="1024" dy="648" grid="1" gridSize="10" guides="1" tooltips="1" connect="1" arrows="1" fold="1" page="1" pageScale="1" pageWidth="50" pageHeight="50" math="0" shadow="0">
      <root>
        <mxCell id="0" />
        <mxCell id="1" parent="0" />
        <mxCell id="JuWWsE7l8j5mAPRNyaYx-7" style="edgeStyle=orthogonalEdgeStyle;rounded=0;orthogonalLoop=1;jettySize=auto;html=1;exitX=0.5;exitY=1;exitDx=0;exitDy=0;entryX=0.5;entryY=0;entryDx=0;entryDy=0;" edge="1" parent="1" source="JuWWsE7l8j5mAPRNyaYx-1" target="JuWWsE7l8j5mAPRNyaYx-2">
          <mxGeometry relative="1" as="geometry" />
        </mxCell>
        <mxCell id="JuWWsE7l8j5mAPRNyaYx-8" value="&lt;div&gt;2&lt;/div&gt;" style="edgeLabel;html=1;align=center;verticalAlign=middle;resizable=0;points=[];" vertex="1" connectable="0" parent="JuWWsE7l8j5mAPRNyaYx-7">
          <mxGeometry x="-0.3248" y="-1" relative="1" as="geometry">
            <mxPoint as="offset" />
          </mxGeometry>
        </mxCell>
        <mxCell id="JuWWsE7l8j5mAPRNyaYx-1" value="&lt;div&gt;1&lt;/div&gt;" style="ellipse;whiteSpace=wrap;html=1;" vertex="1" parent="1">
          <mxGeometry x="50" y="140" width="50" height="50" as="geometry" />
        </mxCell>
        <mxCell id="JuWWsE7l8j5mAPRNyaYx-2" value="&lt;div&gt;2&lt;/div&gt;" style="ellipse;whiteSpace=wrap;html=1;" vertex="1" parent="1">
          <mxGeometry x="50" y="233" width="50" height="50" as="geometry" />
        </mxCell>
        <mxCell id="JuWWsE7l8j5mAPRNyaYx-3" value="" style="endArrow=classic;html=1;rounded=0;entryX=0;entryY=0.5;entryDx=0;entryDy=0;" edge="1" parent="1" target="JuWWsE7l8j5mAPRNyaYx-1">
          <mxGeometry width="50" height="50" relative="1" as="geometry">
            <mxPoint x="10" y="165" as="sourcePoint" />
            <mxPoint x="260" y="160" as="targetPoint" />
          </mxGeometry>
        </mxCell>
        <mxCell id="JuWWsE7l8j5mAPRNyaYx-5" value="&lt;div&gt;27&lt;/div&gt;" style="edgeLabel;html=1;align=center;verticalAlign=middle;resizable=0;points=[];" vertex="1" connectable="0" parent="JuWWsE7l8j5mAPRNyaYx-3">
          <mxGeometry x="-0.6655" relative="1" as="geometry">
            <mxPoint x="3" as="offset" />
          </mxGeometry>
        </mxCell>
        <mxCell id="JuWWsE7l8j5mAPRNyaYx-4" value="" style="endArrow=classic;html=1;rounded=0;entryX=0;entryY=0.5;entryDx=0;entryDy=0;" edge="1" parent="1" target="JuWWsE7l8j5mAPRNyaYx-2">
          <mxGeometry width="50" height="50" relative="1" as="geometry">
            <mxPoint x="10" y="258" as="sourcePoint" />
            <mxPoint x="60" y="175" as="targetPoint" />
          </mxGeometry>
        </mxCell>
        <mxCell id="JuWWsE7l8j5mAPRNyaYx-6" value="&lt;div&gt;24&lt;/div&gt;" style="edgeLabel;html=1;align=center;verticalAlign=middle;resizable=0;points=[];" vertex="1" connectable="0" parent="JuWWsE7l8j5mAPRNyaYx-4">
          <mxGeometry x="-0.5966" relative="1" as="geometry">
            <mxPoint x="2" as="offset" />
          </mxGeometry>
        </mxCell>
        <mxCell id="JuWWsE7l8j5mAPRNyaYx-9" value="&lt;div&gt;3&lt;/div&gt;" style="ellipse;whiteSpace=wrap;html=1;" vertex="1" parent="1">
          <mxGeometry x="200" y="120" width="50" height="50" as="geometry" />
        </mxCell>
        <mxCell id="JuWWsE7l8j5mAPRNyaYx-11" value="" style="endArrow=classic;html=1;rounded=0;entryX=0;entryY=1;entryDx=0;entryDy=0;exitX=1;exitY=0.5;exitDx=0;exitDy=0;" edge="1" parent="1" source="JuWWsE7l8j5mAPRNyaYx-2" target="JuWWsE7l8j5mAPRNyaYx-9">
          <mxGeometry width="50" height="50" relative="1" as="geometry">
            <mxPoint x="55" y="320" as="sourcePoint" />
            <mxPoint x="95" y="320" as="targetPoint" />
          </mxGeometry>
        </mxCell>
        <mxCell id="JuWWsE7l8j5mAPRNyaYx-13" value="&lt;div&gt;7&lt;/div&gt;" style="edgeLabel;html=1;align=center;verticalAlign=middle;resizable=0;points=[];" vertex="1" connectable="0" parent="JuWWsE7l8j5mAPRNyaYx-11">
          <mxGeometry x="-0.1871" relative="1" as="geometry">
            <mxPoint as="offset" />
          </mxGeometry>
        </mxCell>
        <mxCell id="JuWWsE7l8j5mAPRNyaYx-14" value="7" style="ellipse;whiteSpace=wrap;html=1;" vertex="1" parent="1">
          <mxGeometry x="320" y="270" width="50" height="50" as="geometry" />
        </mxCell>
        <mxCell id="JuWWsE7l8j5mAPRNyaYx-15" value="" style="endArrow=classic;html=1;rounded=0;entryX=0;entryY=0;entryDx=0;entryDy=0;exitX=1;exitY=1;exitDx=0;exitDy=0;" edge="1" parent="1" source="JuWWsE7l8j5mAPRNyaYx-2" target="JuWWsE7l8j5mAPRNyaYx-64">
          <mxGeometry width="50" height="50" relative="1" as="geometry">
            <mxPoint x="103" y="286" as="sourcePoint" />
            <mxPoint x="155" y="333" as="targetPoint" />
          </mxGeometry>
        </mxCell>
        <mxCell id="JuWWsE7l8j5mAPRNyaYx-16" value="&lt;div&gt;10&lt;/div&gt;" style="edgeLabel;html=1;align=center;verticalAlign=middle;resizable=0;points=[];" vertex="1" connectable="0" parent="JuWWsE7l8j5mAPRNyaYx-15">
          <mxGeometry x="-0.1871" relative="1" as="geometry">
            <mxPoint as="offset" />
          </mxGeometry>
        </mxCell>
        <mxCell id="JuWWsE7l8j5mAPRNyaYx-18" value="&lt;div&gt;5&lt;/div&gt;" style="ellipse;whiteSpace=wrap;html=1;" vertex="1" parent="1">
          <mxGeometry x="314" y="100" width="50" height="50" as="geometry" />
        </mxCell>
        <mxCell id="JuWWsE7l8j5mAPRNyaYx-22" value="4" style="ellipse;whiteSpace=wrap;html=1;" vertex="1" parent="1">
          <mxGeometry x="200" y="233" width="50" height="50" as="geometry" />
        </mxCell>
        <mxCell id="JuWWsE7l8j5mAPRNyaYx-23" value="6" style="ellipse;whiteSpace=wrap;html=1;" vertex="1" parent="1">
          <mxGeometry x="320" y="180" width="50" height="50" as="geometry" />
        </mxCell>
        <mxCell id="JuWWsE7l8j5mAPRNyaYx-25" value="" style="endArrow=classic;html=1;rounded=0;exitX=0.5;exitY=1;exitDx=0;exitDy=0;" edge="1" parent="1" source="JuWWsE7l8j5mAPRNyaYx-64">
          <mxGeometry width="50" height="50" relative="1" as="geometry">
            <mxPoint x="50" y="-30" as="sourcePoint" />
            <mxPoint x="155" y="420" as="targetPoint" />
          </mxGeometry>
        </mxCell>
        <mxCell id="JuWWsE7l8j5mAPRNyaYx-72" value="5" style="edgeLabel;html=1;align=center;verticalAlign=middle;resizable=0;points=[];" vertex="1" connectable="0" parent="JuWWsE7l8j5mAPRNyaYx-25">
          <mxGeometry x="-0.1879" relative="1" as="geometry">
            <mxPoint as="offset" />
          </mxGeometry>
        </mxCell>
        <mxCell id="JuWWsE7l8j5mAPRNyaYx-26" value="" style="endArrow=classic;html=1;rounded=0;entryX=0;entryY=1;entryDx=0;entryDy=0;exitX=1;exitY=0;exitDx=0;exitDy=0;" edge="1" parent="1" source="JuWWsE7l8j5mAPRNyaYx-1" target="JuWWsE7l8j5mAPRNyaYx-51">
          <mxGeometry width="50" height="50" relative="1" as="geometry">
            <mxPoint x="60" y="-20" as="sourcePoint" />
            <mxPoint x="110" y="-70" as="targetPoint" />
          </mxGeometry>
        </mxCell>
        <mxCell id="JuWWsE7l8j5mAPRNyaYx-27" value="5" style="edgeLabel;html=1;align=center;verticalAlign=middle;resizable=0;points=[];" vertex="1" connectable="0" parent="JuWWsE7l8j5mAPRNyaYx-26">
          <mxGeometry x="-0.3042" relative="1" as="geometry">
            <mxPoint as="offset" />
          </mxGeometry>
        </mxCell>
        <mxCell id="JuWWsE7l8j5mAPRNyaYx-28" value="" style="endArrow=classic;html=1;rounded=0;exitX=0.5;exitY=1;exitDx=0;exitDy=0;entryX=0.5;entryY=0;entryDx=0;entryDy=0;" edge="1" parent="1" source="JuWWsE7l8j5mAPRNyaYx-9" target="JuWWsE7l8j5mAPRNyaYx-22">
          <mxGeometry width="50" height="50" relative="1" as="geometry">
            <mxPoint x="60" y="-20" as="sourcePoint" />
            <mxPoint x="190" y="220" as="targetPoint" />
          </mxGeometry>
        </mxCell>
        <mxCell id="JuWWsE7l8j5mAPRNyaYx-30" value="10" style="edgeLabel;html=1;align=center;verticalAlign=middle;resizable=0;points=[];" vertex="1" connectable="0" parent="JuWWsE7l8j5mAPRNyaYx-28">
          <mxGeometry x="-0.1014" y="-1" relative="1" as="geometry">
            <mxPoint as="offset" />
          </mxGeometry>
        </mxCell>
        <mxCell id="JuWWsE7l8j5mAPRNyaYx-29" value="" style="endArrow=classic;html=1;rounded=0;entryX=0;entryY=0;entryDx=0;entryDy=0;exitX=1;exitY=0.5;exitDx=0;exitDy=0;" edge="1" parent="1" source="JuWWsE7l8j5mAPRNyaYx-9" target="JuWWsE7l8j5mAPRNyaYx-23">
          <mxGeometry width="50" height="50" relative="1" as="geometry">
            <mxPoint x="203" y="337" as="sourcePoint" />
            <mxPoint x="267" y="311" as="targetPoint" />
          </mxGeometry>
        </mxCell>
        <mxCell id="JuWWsE7l8j5mAPRNyaYx-31" value="10" style="edgeLabel;html=1;align=center;verticalAlign=middle;resizable=0;points=[];" vertex="1" connectable="0" parent="JuWWsE7l8j5mAPRNyaYx-29">
          <mxGeometry x="-0.1678" relative="1" as="geometry">
            <mxPoint x="-12" y="-5" as="offset" />
          </mxGeometry>
        </mxCell>
        <mxCell id="JuWWsE7l8j5mAPRNyaYx-32" value="" style="endArrow=classic;html=1;rounded=0;entryX=1;entryY=0.5;entryDx=0;entryDy=0;exitX=0;exitY=0.5;exitDx=0;exitDy=0;" edge="1" parent="1" source="JuWWsE7l8j5mAPRNyaYx-22" target="JuWWsE7l8j5mAPRNyaYx-2">
          <mxGeometry width="50" height="50" relative="1" as="geometry">
            <mxPoint x="310" y="190" as="sourcePoint" />
            <mxPoint x="360" y="140" as="targetPoint" />
          </mxGeometry>
        </mxCell>
        <mxCell id="JuWWsE7l8j5mAPRNyaYx-33" value="10" style="edgeLabel;html=1;align=center;verticalAlign=middle;resizable=0;points=[];" vertex="1" connectable="0" parent="JuWWsE7l8j5mAPRNyaYx-32">
          <mxGeometry x="0.08" y="-2" relative="1" as="geometry">
            <mxPoint as="offset" />
          </mxGeometry>
        </mxCell>
        <mxCell id="JuWWsE7l8j5mAPRNyaYx-36" value="" style="endArrow=classic;html=1;rounded=0;entryX=0;entryY=1;entryDx=0;entryDy=0;exitX=1;exitY=0;exitDx=0;exitDy=0;" edge="1" parent="1" source="JuWWsE7l8j5mAPRNyaYx-22" target="JuWWsE7l8j5mAPRNyaYx-18">
          <mxGeometry width="50" height="50" relative="1" as="geometry">
            <mxPoint x="60" y="-20" as="sourcePoint" />
            <mxPoint x="110" y="-70" as="targetPoint" />
          </mxGeometry>
        </mxCell>
        <mxCell id="JuWWsE7l8j5mAPRNyaYx-37" value="9" style="edgeLabel;html=1;align=center;verticalAlign=middle;resizable=0;points=[];" vertex="1" connectable="0" parent="JuWWsE7l8j5mAPRNyaYx-36">
          <mxGeometry x="-0.0601" relative="1" as="geometry">
            <mxPoint x="-10" y="17" as="offset" />
          </mxGeometry>
        </mxCell>
        <mxCell id="JuWWsE7l8j5mAPRNyaYx-38" value="" style="endArrow=classic;html=1;rounded=0;entryX=0;entryY=0;entryDx=0;entryDy=0;exitX=1;exitY=0.5;exitDx=0;exitDy=0;" edge="1" parent="1" source="JuWWsE7l8j5mAPRNyaYx-22" target="JuWWsE7l8j5mAPRNyaYx-14">
          <mxGeometry width="50" height="50" relative="1" as="geometry">
            <mxPoint x="60" y="-20" as="sourcePoint" />
            <mxPoint x="110" y="-70" as="targetPoint" />
          </mxGeometry>
        </mxCell>
        <mxCell id="JuWWsE7l8j5mAPRNyaYx-39" value="7" style="edgeLabel;html=1;align=center;verticalAlign=middle;resizable=0;points=[];" vertex="1" connectable="0" parent="JuWWsE7l8j5mAPRNyaYx-38">
          <mxGeometry x="-0.1772" relative="1" as="geometry">
            <mxPoint as="offset" />
          </mxGeometry>
        </mxCell>
        <mxCell id="JuWWsE7l8j5mAPRNyaYx-40" value="" style="endArrow=classic;html=1;rounded=0;entryX=0.41;entryY=0.03;entryDx=0;entryDy=0;exitX=0.5;exitY=1;exitDx=0;exitDy=0;entryPerimeter=0;" edge="1" parent="1" source="JuWWsE7l8j5mAPRNyaYx-18" target="JuWWsE7l8j5mAPRNyaYx-23">
          <mxGeometry width="50" height="50" relative="1" as="geometry">
            <mxPoint x="60" y="-20" as="sourcePoint" />
            <mxPoint x="110" y="-70" as="targetPoint" />
          </mxGeometry>
        </mxCell>
        <mxCell id="JuWWsE7l8j5mAPRNyaYx-42" value="4" style="edgeLabel;html=1;align=center;verticalAlign=middle;resizable=0;points=[];" vertex="1" connectable="0" parent="JuWWsE7l8j5mAPRNyaYx-40">
          <mxGeometry x="0.0043" relative="1" as="geometry">
            <mxPoint as="offset" />
          </mxGeometry>
        </mxCell>
        <mxCell id="JuWWsE7l8j5mAPRNyaYx-43" value="" style="endArrow=classic;html=1;rounded=0;exitX=0.5;exitY=1;exitDx=0;exitDy=0;entryX=0.5;entryY=0;entryDx=0;entryDy=0;" edge="1" parent="1" source="JuWWsE7l8j5mAPRNyaYx-23" target="JuWWsE7l8j5mAPRNyaYx-14">
          <mxGeometry width="50" height="50" relative="1" as="geometry">
            <mxPoint x="60" y="-20" as="sourcePoint" />
            <mxPoint x="400" y="180" as="targetPoint" />
          </mxGeometry>
        </mxCell>
        <mxCell id="JuWWsE7l8j5mAPRNyaYx-44" value="1" style="edgeLabel;html=1;align=center;verticalAlign=middle;resizable=0;points=[];" vertex="1" connectable="0" parent="JuWWsE7l8j5mAPRNyaYx-43">
          <mxGeometry x="-0.0136" y="-2" relative="1" as="geometry">
            <mxPoint as="offset" />
          </mxGeometry>
        </mxCell>
        <mxCell id="JuWWsE7l8j5mAPRNyaYx-45" value="" style="endArrow=classic;html=1;rounded=0;exitX=1;exitY=0.5;exitDx=0;exitDy=0;" edge="1" parent="1" source="JuWWsE7l8j5mAPRNyaYx-18">
          <mxGeometry width="50" height="50" relative="1" as="geometry">
            <mxPoint x="364" y="104.66" as="sourcePoint" />
            <mxPoint x="414" y="125" as="targetPoint" />
          </mxGeometry>
        </mxCell>
        <mxCell id="JuWWsE7l8j5mAPRNyaYx-48" value="13" style="edgeLabel;html=1;align=center;verticalAlign=middle;resizable=0;points=[];" vertex="1" connectable="0" parent="JuWWsE7l8j5mAPRNyaYx-45">
          <mxGeometry x="-0.1617" y="-1" relative="1" as="geometry">
            <mxPoint as="offset" />
          </mxGeometry>
        </mxCell>
        <mxCell id="JuWWsE7l8j5mAPRNyaYx-46" value="" style="endArrow=classic;html=1;rounded=0;exitX=1;exitY=0.5;exitDx=0;exitDy=0;" edge="1" parent="1" source="JuWWsE7l8j5mAPRNyaYx-23">
          <mxGeometry width="50" height="50" relative="1" as="geometry">
            <mxPoint x="380" y="210" as="sourcePoint" />
            <mxPoint x="420" y="205" as="targetPoint" />
          </mxGeometry>
        </mxCell>
        <mxCell id="JuWWsE7l8j5mAPRNyaYx-49" value="17" style="edgeLabel;html=1;align=center;verticalAlign=middle;resizable=0;points=[];" vertex="1" connectable="0" parent="JuWWsE7l8j5mAPRNyaYx-46">
          <mxGeometry x="-0.1807" y="1" relative="1" as="geometry">
            <mxPoint as="offset" />
          </mxGeometry>
        </mxCell>
        <mxCell id="JuWWsE7l8j5mAPRNyaYx-47" value="" style="endArrow=classic;html=1;rounded=0;exitX=1;exitY=0.5;exitDx=0;exitDy=0;" edge="1" parent="1" source="JuWWsE7l8j5mAPRNyaYx-14">
          <mxGeometry width="50" height="50" relative="1" as="geometry">
            <mxPoint x="370" y="280" as="sourcePoint" />
            <mxPoint x="420" y="295" as="targetPoint" />
          </mxGeometry>
        </mxCell>
        <mxCell id="JuWWsE7l8j5mAPRNyaYx-50" value="21" style="edgeLabel;html=1;align=center;verticalAlign=middle;resizable=0;points=[];" vertex="1" connectable="0" parent="JuWWsE7l8j5mAPRNyaYx-47">
          <mxGeometry x="-0.291" relative="1" as="geometry">
            <mxPoint as="offset" />
          </mxGeometry>
        </mxCell>
        <mxCell id="JuWWsE7l8j5mAPRNyaYx-51" value="8" style="ellipse;whiteSpace=wrap;html=1;" vertex="1" parent="1">
          <mxGeometry x="130" y="50" width="50" height="50" as="geometry" />
        </mxCell>
        <mxCell id="JuWWsE7l8j5mAPRNyaYx-52" value="9" style="ellipse;whiteSpace=wrap;html=1;" vertex="1" parent="1">
          <mxGeometry x="230" y="50" width="50" height="50" as="geometry" />
        </mxCell>
        <mxCell id="JuWWsE7l8j5mAPRNyaYx-53" value="" style="endArrow=classic;html=1;rounded=0;exitX=0;exitY=0.5;exitDx=0;exitDy=0;entryX=1;entryY=0.5;entryDx=0;entryDy=0;" edge="1" parent="1" source="JuWWsE7l8j5mAPRNyaYx-52" target="JuWWsE7l8j5mAPRNyaYx-51">
          <mxGeometry width="50" height="50" relative="1" as="geometry">
            <mxPoint x="60" y="-20" as="sourcePoint" />
            <mxPoint x="110" y="-70" as="targetPoint" />
          </mxGeometry>
        </mxCell>
        <mxCell id="JuWWsE7l8j5mAPRNyaYx-62" value="0" style="edgeLabel;html=1;align=center;verticalAlign=middle;resizable=0;points=[];" vertex="1" connectable="0" parent="JuWWsE7l8j5mAPRNyaYx-53">
          <mxGeometry x="-0.0262" y="-1" relative="1" as="geometry">
            <mxPoint as="offset" />
          </mxGeometry>
        </mxCell>
        <mxCell id="JuWWsE7l8j5mAPRNyaYx-54" value="" style="endArrow=classic;html=1;rounded=0;entryX=0;entryY=0;entryDx=0;entryDy=0;exitX=0.961;exitY=0.69;exitDx=0;exitDy=0;exitPerimeter=0;" edge="1" parent="1" source="JuWWsE7l8j5mAPRNyaYx-52" target="JuWWsE7l8j5mAPRNyaYx-18">
          <mxGeometry width="50" height="50" relative="1" as="geometry">
            <mxPoint x="103" y="157" as="sourcePoint" />
            <mxPoint x="147" y="93" as="targetPoint" />
          </mxGeometry>
        </mxCell>
        <mxCell id="JuWWsE7l8j5mAPRNyaYx-63" value="0" style="edgeLabel;html=1;align=center;verticalAlign=middle;resizable=0;points=[];" vertex="1" connectable="0" parent="JuWWsE7l8j5mAPRNyaYx-54">
          <mxGeometry x="-0.0512" y="-1" relative="1" as="geometry">
            <mxPoint as="offset" />
          </mxGeometry>
        </mxCell>
        <mxCell id="JuWWsE7l8j5mAPRNyaYx-58" value="" style="endArrow=classic;html=1;rounded=0;entryX=0.5;entryY=0;entryDx=0;entryDy=0;" edge="1" parent="1" target="JuWWsE7l8j5mAPRNyaYx-52">
          <mxGeometry width="50" height="50" relative="1" as="geometry">
            <mxPoint x="255" y="10" as="sourcePoint" />
            <mxPoint x="190" y="85" as="targetPoint" />
          </mxGeometry>
        </mxCell>
        <mxCell id="JuWWsE7l8j5mAPRNyaYx-76" value="7" style="edgeLabel;html=1;align=center;verticalAlign=middle;resizable=0;points=[];" vertex="1" connectable="0" parent="JuWWsE7l8j5mAPRNyaYx-58">
          <mxGeometry x="-0.1707" y="-1" relative="1" as="geometry">
            <mxPoint as="offset" />
          </mxGeometry>
        </mxCell>
        <mxCell id="JuWWsE7l8j5mAPRNyaYx-59" value="" style="endArrow=classic;html=1;rounded=0;exitX=0.5;exitY=0;exitDx=0;exitDy=0;" edge="1" parent="1" source="JuWWsE7l8j5mAPRNyaYx-51">
          <mxGeometry width="50" height="50" relative="1" as="geometry">
            <mxPoint x="265" y="20" as="sourcePoint" />
            <mxPoint x="155" y="10" as="targetPoint" />
          </mxGeometry>
        </mxCell>
        <mxCell id="JuWWsE7l8j5mAPRNyaYx-75" value="7" style="edgeLabel;html=1;align=center;verticalAlign=middle;resizable=0;points=[];" vertex="1" connectable="0" parent="JuWWsE7l8j5mAPRNyaYx-59">
          <mxGeometry x="-0.1397" y="-2" relative="1" as="geometry">
            <mxPoint as="offset" />
          </mxGeometry>
        </mxCell>
        <mxCell id="JuWWsE7l8j5mAPRNyaYx-64" value="10" style="ellipse;whiteSpace=wrap;html=1;" vertex="1" parent="1">
          <mxGeometry x="130" y="330" width="50" height="50" as="geometry" />
        </mxCell>
        <mxCell id="JuWWsE7l8j5mAPRNyaYx-65" value="&lt;div&gt;11&lt;/div&gt;" style="ellipse;whiteSpace=wrap;html=1;" vertex="1" parent="1">
          <mxGeometry x="230" y="330" width="50" height="50" as="geometry" />
        </mxCell>
        <mxCell id="JuWWsE7l8j5mAPRNyaYx-66" value="" style="endArrow=classic;html=1;rounded=0;entryX=1;entryY=0.5;entryDx=0;entryDy=0;exitX=0;exitY=0.5;exitDx=0;exitDy=0;" edge="1" parent="1" source="JuWWsE7l8j5mAPRNyaYx-65" target="JuWWsE7l8j5mAPRNyaYx-64">
          <mxGeometry width="50" height="50" relative="1" as="geometry">
            <mxPoint x="60" y="-20" as="sourcePoint" />
            <mxPoint x="110" y="-70" as="targetPoint" />
          </mxGeometry>
        </mxCell>
        <mxCell id="JuWWsE7l8j5mAPRNyaYx-71" value="0" style="edgeLabel;html=1;align=center;verticalAlign=middle;resizable=0;points=[];" vertex="1" connectable="0" parent="JuWWsE7l8j5mAPRNyaYx-66">
          <mxGeometry x="-0.0262" y="-1" relative="1" as="geometry">
            <mxPoint as="offset" />
          </mxGeometry>
        </mxCell>
        <mxCell id="JuWWsE7l8j5mAPRNyaYx-67" value="" style="endArrow=classic;html=1;rounded=0;entryX=0;entryY=1;entryDx=0;entryDy=0;exitX=0.975;exitY=0.29;exitDx=0;exitDy=0;exitPerimeter=0;" edge="1" parent="1" source="JuWWsE7l8j5mAPRNyaYx-65" target="JuWWsE7l8j5mAPRNyaYx-14">
          <mxGeometry width="50" height="50" relative="1" as="geometry">
            <mxPoint x="290" y="340" as="sourcePoint" />
            <mxPoint x="190" y="365" as="targetPoint" />
          </mxGeometry>
        </mxCell>
        <mxCell id="JuWWsE7l8j5mAPRNyaYx-70" value="0" style="edgeLabel;html=1;align=center;verticalAlign=middle;resizable=0;points=[];" vertex="1" connectable="0" parent="JuWWsE7l8j5mAPRNyaYx-67">
          <mxGeometry x="-0.1957" y="-2" relative="1" as="geometry">
            <mxPoint as="offset" />
          </mxGeometry>
        </mxCell>
        <mxCell id="JuWWsE7l8j5mAPRNyaYx-69" value="" style="endArrow=classic;html=1;rounded=0;entryX=0.5;entryY=1;entryDx=0;entryDy=0;" edge="1" parent="1" target="JuWWsE7l8j5mAPRNyaYx-65">
          <mxGeometry width="50" height="50" relative="1" as="geometry">
            <mxPoint x="255" y="420" as="sourcePoint" />
            <mxPoint x="250" y="380" as="targetPoint" />
          </mxGeometry>
        </mxCell>
        <mxCell id="JuWWsE7l8j5mAPRNyaYx-73" value="5" style="edgeLabel;html=1;align=center;verticalAlign=middle;resizable=0;points=[];" vertex="1" connectable="0" parent="JuWWsE7l8j5mAPRNyaYx-69">
          <mxGeometry x="-0.0534" y="-2" relative="1" as="geometry">
            <mxPoint as="offset" />
          </mxGeometry>
        </mxCell>
      </root>
    </mxGraphModel>
  </diagram>
</mxfile>
